<?xml version="1.0" encoding="utf-8"?>
<!-- Generator: Adobe Illustrator 18.0.0, SVG Export Plug-In . SVG Version: 6.00 Build 0)  -->
<!DOCTYPE svg PUBLIC "-//W3C//DTD SVG 1.1//EN" "http://www.w3.org/Graphics/SVG/1.1/DTD/svg11.dtd">
<svg version="1.1" xmlns="http://www.w3.org/2000/svg" xmlns:xlink="http://www.w3.org/1999/xlink" x="0px" y="0px" width="636px"
	 height="720px" viewBox="0 0 636 720" enable-background="new 0 0 636 720" xml:space="preserve">
<g id="drawing">
	<path fill="none" stroke="#CECECE" stroke-width="2" stroke-linecap="round" stroke-linejoin="round" stroke-miterlimit="10" d="
		M64.7,623.5c0,0,151.3-445.5,174.3-599"/>
	<path fill="none" stroke="#CECECE" stroke-width="2" stroke-linecap="round" stroke-linejoin="round" stroke-miterlimit="10" d="
		M270.6,55.9c40,138.9,60.6,268.1,171,556"/>
	<path fill="none" stroke="#CECECE" stroke-width="2" stroke-linecap="round" stroke-linejoin="round" stroke-miterlimit="10" d="
		M35,578.6c0,0,385.5-11.5,450,0"/>
</g>
<g inkscape:version="0.48.2 r9819" sodipodi:docname="Erlenmeyer_flasks_en.svg" xmlns:sodipodi="http://sodipodi.sourceforge.net/DTD/sodipodi-0.dtd" xmlns:svg="http://www.w3.org/2000/svg" xmlns:dc="http://purl.org/dc/elements/1.1/" xmlns:inkscape="http://www.inkscape.org/namespaces/inkscape" xmlns:rdf="http://www.w3.org/1999/02/22-rdf-syntax-ns#" xmlns:cc="http://creativecommons.org/ns#">
	
		<path id="outline" fill="none" stroke="#1A1A18" stroke-width="3.566" stroke-linecap="round" stroke-linejoin="round" stroke-miterlimit="10" d="
		M393.5,484.4c-31.4-101.7-62.8-203.9-94.1-305.3c0.2-32.7-0.3-66,0.2-98.3l3.4-11.3c1.1-2.1,2.3-3.9,3.8-5.2
		c3.3-0.7,3.1-5.8-0.5-5.9H195.1c-3.6,0.1-3.8,5.3-0.5,5.9c3.6,3.2,5.8,9,7.2,14.4c0.6,33,0.1,67.1,0.3,100.5
		c-31.3,101.4-62.8,203.6-94.1,305.3c-4,13.2-8.3,23.7-6.9,36.7c0.7,7.9,2.9,15.5,6.2,21.2c2.9,6.4,6.9,11,11.5,15.7
		c4.1,3.7,9.1,7.5,14.9,10c5.6,2.9,12.2,4.4,19,5.4h196.4c6.8-1,13.4-2.5,19-5.4c5.8-2.5,10.8-6.3,14.9-10
		c4.6-4.7,8.6-9.3,11.5-15.7c3.2-5.7,5.4-13.3,6.2-21.2C401.8,508.1,397.6,497.6,393.5,484.4z"/>
</g>
<g id="flask">
	<linearGradient id="solution_1_" gradientUnits="userSpaceOnUse" x1="250.8538" y1="402.5" x2="250.8538" y2="564.3333">
		<stop  offset="0" style="stop-color:#FF7F6A"/>
		<stop  offset="3.163265e-002" style="stop-color:#FF1B15"/>
		<stop  offset="0.2593" style="stop-color:#FA1913"/>
		<stop  offset="0.5162" style="stop-color:#ED130F"/>
		<stop  offset="0.7862" style="stop-color:#D60A08"/>
		<stop  offset="1" style="stop-color:#BF0000"/>
	</linearGradient>
	<path id="solution" fill="url(#solution_1_)" stroke="#A5001C" stroke-miterlimit="10" d="M356.3,402.5H145.2
		c-8.4,27-16.8,54-25.2,81c-3.7,12-7.6,21.5-6.3,33.3c0.6,7.2,2.7,14.1,5.7,19.3c2.7,5.8,6.3,10,10.5,14.3c3.8,3.4,8.3,6.8,13.6,9.1
		c5.1,2.6,11.2,4,17.4,4.9h179.9c6.2-0.9,12.3-2.3,17.4-4.9c5.3-2.3,9.9-5.7,13.6-9.1c4.2-4.3,7.9-8.4,10.5-14.3
		c2.9-5.2,4.9-12.1,5.7-19.3c1-11.9-2.8-21.4-6.6-33.4C373.1,456.5,364.7,429.5,356.3,402.5z"/>
	
		<path id="glass" opacity="0.61" fill="#D4F4F9" stroke="#7399A8" stroke-width="2" stroke-linecap="round" stroke-linejoin="round" stroke-miterlimit="10" d="
		M393.5,484.4c-31.4-101.7-62.8-203.9-94.1-305.3c0.2-32.7-0.3-66,0.2-98.3l3.4-11.3c1.1-2.1,2.3-3.9,3.8-5.2
		c3.3-0.7,3.1-5.8-0.5-5.9H195.1c-3.6,0.1-3.8,5.3-0.5,5.9c3.6,3.2,5.8,9,7.2,14.4c0.6,33,0.1,67.1,0.3,100.5
		c-31.3,101.4-62.8,203.6-94.1,305.3c-4,13.2-8.3,23.7-6.9,36.7c0.7,7.9,2.9,15.5,6.2,21.2c2.9,6.4,6.9,11,11.5,15.7
		c4.1,3.7,9.1,7.5,14.9,10c5.6,2.9,12.2,4.4,19,5.4h196.4c6.8-1,13.4-2.5,19-5.4c5.8-2.5,10.8-6.3,14.9-10
		c4.6-4.7,8.6-9.3,11.5-15.7c3.2-5.7,5.4-13.3,6.2-21.2C401.8,508.1,397.6,497.6,393.5,484.4z"/>
	<linearGradient id="highlight_1_" gradientUnits="userSpaceOnUse" x1="308.4604" y1="58.4" x2="308.4604" y2="573.5001">
		<stop  offset="0" style="stop-color:#FFFFFF;stop-opacity:0.1"/>
		<stop  offset="1" style="stop-color:#FFFFFF;stop-opacity:0.6"/>
	</linearGradient>
	<path id="highlight" fill="url(#highlight_1_)" d="M314.6,573.5c3.5-1,8.1-2.5,11-5.4c2.9-2.5,7-6.8,9.1-10.5
		c2.3-4.7,4.4-9.3,5.8-15.7c1.6-5.7,2.7-13.3,3.1-21.2c0.6-13.1-1.6-23.6-3.7-36.8c-15.9-101.7-41.8-203.4-57.7-304.8
		c0.1-32.7-0.2-66,0.1-98.3l1.7-11.3c0.6-2.1,1.2-3.9,1.9-5.2c1.7-0.7,1.6-5.8-0.3-5.9h-10.7c1,0.1,1,5.2,0.1,5.9
		c-0.4,1.3-0.7,3.1-1,5.2l-0.9,11.3c-0.1,32.3,0,65.6-0.1,98.3c8.6,101.4,27.2,203.1,35.8,304.8c1.1,13.2,2.3,23.7,2,36.8
		c-0.2,7.9-0.8,15.5-1.7,21.2c-0.8,6.4-1.9,11-3.2,15.7c-1.1,3.7-4,8-5.6,10.5c-1.5,2.9-4.7,4.4-6.5,5.4H314.6z"/>
</g>
</svg>
